<?xml version="1.0" encoding="UTF-8"?>
<svg xmlns="http://www.w3.org/2000/svg" xmlns:xlink="http://www.w3.org/1999/xlink" width="13pt" height="13pt" viewBox="0 0 13 13" version="1.1">
<g id="surface1">
<path style=" stroke:none;fill-rule:nonzero;fill:rgb(100%,100%,100%);fill-opacity:1;" d="M 12.0625 0 L 0.9375 0 C 0.417969 0 0 0.417969 0 0.9375 L 0 12.0625 C 0 12.582031 0.417969 13 0.9375 13 L 12.0625 13 C 12.582031 13 13 12.582031 13 12.0625 L 13 0.9375 C 13 0.417969 12.582031 0 12.0625 0 Z M 4.609375 9.828125 L 3.027344 9.828125 L 3.027344 5.0625 L 4.609375 5.0625 Z M 3.820312 4.414062 L 3.808594 4.414062 C 3.277344 4.414062 2.933594 4.046875 2.933594 3.589844 C 2.933594 3.125 3.289062 2.765625 3.832031 2.765625 C 4.371094 2.765625 4.703125 3.125 4.714844 3.589844 C 4.714844 4.046875 4.371094 4.414062 3.820312 4.414062 Z M 10.320312 9.828125 L 8.738281 9.828125 L 8.738281 7.277344 C 8.738281 6.636719 8.507812 6.203125 7.933594 6.203125 C 7.496094 6.203125 7.238281 6.496094 7.121094 6.78125 C 7.082031 6.882812 7.070312 7.023438 7.070312 7.167969 L 7.070312 9.828125 L 5.488281 9.828125 C 5.488281 9.828125 5.507812 5.511719 5.488281 5.0625 L 7.070312 5.0625 L 7.070312 5.738281 C 7.28125 5.414062 7.65625 4.953125 8.496094 4.953125 C 9.539062 4.953125 10.320312 5.632812 10.320312 7.09375 Z M 10.320312 9.828125 "/>
</g>
</svg>
