<svg width="2878" height="1346" viewBox="0 0 2878 1346" fill="none" xmlns="http://www.w3.org/2000/svg">
<path d="M427.256 425.992V186.632C409.421 182.877 383.608 177.245 349.816 169.736C316.024 161.288 290.211 155.187 272.376 151.432C218.872 140.168 176.632 134.536 145.656 134.536C86.52 134.536 56.952 150.963 56.952 183.816C56.952 220.424 69.1547 251.4 93.56 276.744C118.904 302.088 141.432 314.76 161.144 314.76C180.856 314.76 198.221 309.597 213.24 299.272C229.197 288.947 243.277 283.784 255.48 283.784C271.437 283.784 279.416 292.232 279.416 309.128C279.416 325.085 271.907 338.227 256.888 348.552C242.808 358.877 220.28 364.04 189.304 364.04C139.555 364.04 97.3147 342.451 62.584 299.272C27.8533 256.093 10.488 211.976 10.488 166.92C10.488 121.864 20.8133 88.072 41.464 65.544C62.1147 43.016 87.928 31.752 118.904 31.752C190.243 31.752 296.312 54.28 437.112 99.336C448.376 40.1999 469.496 10.6319 500.472 10.6319C514.552 10.6319 521.592 49.1173 521.592 126.088C612.643 154.248 691.021 168.328 756.728 168.328C798.968 168.328 836.045 154.717 867.96 127.496C877.347 119.987 885.325 116.232 891.896 116.232C899.405 116.232 903.16 119.517 903.16 126.088C903.16 151.432 884.387 174.429 846.84 195.08C809.293 214.792 764.237 224.648 711.672 224.648C659.107 224.648 595.747 218.077 521.592 204.936C523.469 334.472 524.408 423.645 524.408 472.456C524.408 521.267 522.531 563.037 518.776 597.768C515.96 632.499 508.92 669.107 497.656 707.592C486.392 745.139 471.373 777.053 452.6 803.336C434.765 828.68 409.421 849.8 376.568 866.696C344.653 883.592 307.107 892.04 263.928 892.04C221.688 892.04 183.203 882.184 148.472 862.472C114.68 842.76 97.784 812.253 97.784 770.952C97.784 745.608 104.355 724.957 117.496 709C130.637 692.104 148.003 683.656 169.592 683.656C192.12 683.656 203.384 688.819 203.384 699.144C203.384 703.837 200.568 713.224 194.936 727.304C189.304 740.445 186.488 754.056 186.488 768.136C186.488 781.277 194.936 795.827 211.832 811.784C229.667 827.741 255.011 835.72 287.864 835.72C380.792 835.72 427.256 699.144 427.256 425.992ZM703.114 808.968L704.522 852.616C704.522 878.899 697.013 892.04 681.994 892.04C659.466 892.04 637.877 889.224 617.226 883.592C596.575 877.021 586.25 868.573 586.25 858.248C586.25 846.984 588.597 809.907 593.29 747.016C598.922 683.187 601.738 635.315 601.738 603.4V521.736C601.738 281.437 644.447 128.435 729.866 62.7279C749.578 47.7093 769.759 40.2 790.41 40.2C799.797 40.2 809.183 50.5253 818.57 71.176C827.957 91.8266 832.65 118.579 832.65 151.432C832.65 232.157 819.039 307.72 791.818 378.12C764.597 448.52 736.906 502.493 708.746 540.04C707.807 563.507 707.338 600.115 707.338 649.864C711.093 644.232 730.805 612.317 766.474 554.12C802.143 495.923 832.181 453.213 856.586 425.992C881.93 398.771 904.458 385.16 924.17 385.16C943.882 385.16 961.247 391.731 976.266 404.872C992.223 418.013 1000.2 434.44 1000.2 454.152C1000.2 495.453 995.509 556.467 986.122 637.192C977.674 716.979 973.45 767.667 973.45 789.256C973.45 809.907 976.266 820.232 981.898 820.232C997.855 819.293 1019.91 799.581 1048.07 761.096C1076.23 721.672 1103.92 671.453 1131.15 610.44C1159.31 549.427 1176.2 518.92 1181.83 518.92C1188.4 518.92 1191.69 522.675 1191.69 530.184C1191.69 556.467 1178.08 598.237 1150.86 655.496C1076.7 813.192 1014.28 892.04 963.594 892.04C926.986 892.04 899.295 884.531 880.522 869.512C873.951 862.941 870.666 846.045 870.666 818.824C870.666 790.664 873.013 745.608 877.706 683.656C883.338 620.765 886.154 573.832 886.154 542.856C886.154 511.88 880.522 496.392 869.258 496.392C858.933 496.392 830.773 528.776 784.778 593.544C738.783 657.373 714.378 698.205 711.562 716.04C705.93 748.893 703.114 779.869 703.114 808.968ZM794.634 182.408C794.634 142.984 789.471 123.272 779.146 123.272C762.25 123.272 745.823 175.368 729.866 279.56C721.418 334.941 715.317 399.24 711.562 472.456C766.943 357 794.634 260.317 794.634 182.408ZM1231.25 517.512L1308.69 509.064C1316.2 509.064 1322.77 513.288 1328.4 521.736C1334.03 530.184 1336.85 539.101 1336.85 548.488C1336.85 557.875 1333.56 589.789 1326.99 644.232C1321.36 698.675 1318.54 741.853 1318.54 773.768C1318.54 804.744 1321.36 820.232 1326.99 820.232C1342.95 819.293 1365.01 799.581 1393.17 761.096C1421.33 721.672 1449.02 671.453 1476.24 610.44C1504.4 549.427 1521.29 518.92 1526.93 518.92C1533.5 518.92 1536.78 522.675 1536.78 530.184C1536.78 556.467 1523.17 598.237 1495.95 655.496C1421.8 813.192 1359.37 892.04 1308.69 892.04C1272.08 892.04 1244.39 884.531 1225.61 869.512C1219.04 862.941 1215.76 822.109 1215.76 747.016C1215.76 671.923 1223.74 607.624 1239.69 554.12C1185.25 554.12 1147.24 536.755 1125.65 502.024C1114.38 484.189 1108.75 464.008 1108.75 441.48C1108.75 418.952 1113.44 399.24 1122.83 382.344C1132.22 365.448 1145.36 357 1162.25 357C1180.09 357 1196.05 366.387 1210.13 385.16C1225.14 402.995 1232.65 423.176 1232.65 445.704C1232.65 468.232 1226.08 490.76 1212.94 513.288C1216.7 516.104 1222.8 517.512 1231.25 517.512ZM1519.72 196.488C1519.72 179.592 1528.64 165.043 1546.47 152.84C1564.31 140.637 1580.27 134.536 1594.35 134.536C1619.69 134.536 1632.36 149.085 1632.36 178.184C1632.36 207.283 1624.85 232.627 1609.83 254.216C1594.81 274.867 1573.69 285.192 1546.47 285.192C1528.64 285.192 1519.72 255.624 1519.72 196.488ZM1560.55 892.04C1523.95 892.04 1496.25 884.531 1477.48 869.512C1470.91 862.941 1467.62 839.475 1467.62 799.112C1467.62 758.749 1470.44 691.635 1476.07 597.768C1482.64 502.963 1488.28 451.805 1492.97 444.296C1497.66 436.787 1512.21 422.707 1536.62 402.056C1561.02 381.405 1579.8 371.08 1592.94 371.08C1607.02 371.08 1614.06 388.915 1614.06 424.584C1614.06 433.971 1611.24 452.275 1605.61 479.496C1600.92 506.717 1595.28 526.429 1588.71 538.632C1576.51 569.608 1570.41 650.803 1570.41 782.216C1570.41 807.56 1573.23 820.232 1578.86 820.232C1594.81 819.293 1616.87 799.581 1645.03 761.096C1673.19 721.672 1700.88 671.453 1728.11 610.44C1756.27 549.427 1773.16 518.92 1778.79 518.92C1785.36 518.92 1788.65 522.675 1788.65 530.184C1788.65 556.467 1775.04 598.237 1747.82 655.496C1673.66 813.192 1611.24 892.04 1560.55 892.04ZM1923.54 587.912C1974.23 575.709 2016.47 560.221 2050.26 541.448C2084.99 522.675 2103.3 513.288 2105.17 513.288C2110.81 513.288 2113.62 517.981 2113.62 527.368C2113.62 536.755 2104.24 548.488 2085.46 562.568C2046.04 591.667 1996.76 616.541 1937.62 637.192C1962.03 730.12 1974.23 828.68 1974.23 932.872C1974.23 1020.17 1964.37 1103.71 1944.66 1183.5C1933.4 1228.55 1915.56 1265.16 1891.16 1293.32C1867.69 1321.48 1838.59 1335.56 1803.86 1335.56C1773.82 1335.56 1753.17 1322.42 1741.91 1296.14C1727.83 1265.16 1719.85 1235.59 1717.97 1207.43C1715.16 1163.31 1713.75 1091.51 1713.75 992.008C1713.75 892.509 1721.26 772.36 1736.28 631.56C1702.49 607.155 1685.59 577.587 1685.59 542.856C1685.59 507.187 1693.1 479.965 1708.12 461.192C1723.14 441.48 1741.91 428.808 1764.44 423.176C1777.58 341.512 1790.25 271.112 1802.45 211.976C1815.6 152.84 1835.31 104.968 1861.59 68.3599C1887.87 30.8133 1914.16 12.04 1940.44 12.04C1970.48 12.04 1985.49 45.3627 1985.49 112.008C1985.49 217.139 1946.54 335.411 1868.63 466.824C1888.34 494.984 1906.65 535.347 1923.54 587.912ZM1824.98 658.312C1816.53 773.768 1812.31 906.12 1812.31 1055.37C1812.31 1205.55 1820.29 1280.65 1836.25 1280.65C1864.41 1280.65 1887.87 1243.57 1906.65 1169.42C1925.42 1096.2 1934.81 1013.6 1934.81 921.608C1934.81 830.557 1924.48 739.037 1903.83 647.048C1875.67 654.557 1849.39 658.312 1824.98 658.312ZM1846.1 447.112C1873.32 402.056 1898.2 349.021 1920.73 288.008C1943.25 226.056 1954.52 174.429 1954.52 133.128C1954.52 91.8266 1950.29 71.176 1941.85 71.176C1926.83 71.176 1910.4 105.437 1892.57 173.96C1875.67 242.483 1860.18 333.533 1846.1 447.112ZM1846.1 503.432L1837.65 517.512L1830.61 589.32C1842.82 593.075 1853.61 594.952 1863 594.952C1873.32 594.952 1881.77 594.483 1888.34 593.544C1876.14 556.936 1862.06 526.899 1846.1 503.432ZM1758.81 458.376C1744.73 463.069 1737.69 473.864 1737.69 490.76C1737.69 507.656 1741.44 522.205 1748.95 534.408C1752.7 500.616 1755.99 475.272 1758.81 458.376ZM2348.14 655.496C2273.99 813.192 2211.1 892.04 2159.47 892.04C2108.78 892.04 2078.74 885.939 2069.36 873.736C2060.91 861.533 2056.69 821.171 2056.69 752.648C2056.69 684.125 2063.26 585.096 2076.4 455.56C2029.46 446.173 2004.59 426.931 2001.77 397.832C2001.77 382.813 2011.63 375.304 2031.34 375.304C2051.05 375.304 2068.42 379.059 2083.44 386.568C2091.89 318.984 2101.74 250.461 2113.01 181C2115.82 163.165 2124.74 146.269 2139.76 130.312C2154.78 114.355 2169.33 106.376 2183.41 106.376C2195.61 106.376 2201.71 125.619 2201.71 164.104C2201.71 181.939 2195.14 264.072 2182 410.504C2207.34 405.811 2235.03 396.424 2265.07 382.344C2296.05 368.264 2314.35 361.224 2319.98 361.224C2336.88 361.224 2345.33 366.387 2345.33 376.712C2346.26 386.099 2328.9 399.24 2293.23 416.136C2257.56 432.093 2219.08 444.296 2177.77 452.744C2166.51 589.789 2160.88 693.512 2160.88 763.912C2160.88 801.459 2166.51 820.232 2177.77 820.232C2194.67 819.293 2217.2 799.581 2245.36 761.096C2273.52 722.611 2301.21 672.861 2328.43 611.848C2356.59 549.896 2373.49 518.92 2379.12 518.92C2385.69 518.92 2388.97 522.675 2388.97 530.184C2388.97 556.467 2375.36 598.237 2348.14 655.496ZM2316 762.504L2324.45 604.808C2324.45 504.371 2329.14 449.459 2338.53 440.072C2347.91 430.685 2364.34 417.075 2387.81 399.24C2412.21 380.467 2429.58 371.08 2439.9 371.08C2451.17 371.08 2458.21 372.957 2461.02 376.712C2463.84 380.467 2465.25 387.976 2465.25 399.24C2465.25 439.603 2456.33 480.435 2438.5 521.736C2424.42 608.093 2417.38 678.963 2417.38 734.344C2417.38 789.725 2423.95 817.416 2437.09 817.416C2459.62 817.416 2485.43 797.704 2514.53 758.28C2544.57 717.917 2575.07 658.781 2606.05 580.872C2606.99 560.221 2607.93 538.632 2608.86 516.104C2609.8 492.637 2610.74 475.741 2611.68 465.416C2612.62 454.152 2613.09 446.173 2613.09 441.48C2614.03 436.787 2627.17 424.115 2652.51 403.464C2677.86 381.875 2697.1 371.08 2710.24 371.08C2724.32 371.08 2731.36 388.915 2731.36 424.584C2731.36 433.971 2728.54 452.275 2722.91 479.496C2718.22 506.717 2712.59 526.429 2706.02 538.632C2698.51 605.277 2693.34 663.475 2690.53 713.224C2782.52 596.829 2831.33 535.347 2836.96 528.776C2843.53 522.205 2849.16 518.92 2853.86 518.92C2863.24 518.92 2867.94 523.613 2867.94 533C2867.94 538.632 2866.06 544.733 2862.3 551.304C2832.27 595.421 2773.13 672.861 2684.9 783.624C2679.26 895.325 2675.51 971.357 2673.63 1011.72C2668.94 1130.93 2652.04 1214.47 2622.94 1262.34C2594.78 1311.15 2544.1 1335.56 2470.88 1335.56C2438.97 1335.56 2408.93 1325.7 2380.77 1305.99C2353.55 1287.22 2339.94 1253.9 2339.94 1206.02C2339.94 1159.09 2357.77 1110.75 2393.44 1061C2430.05 1011.25 2496.22 934.749 2591.97 831.496L2600.42 678.024C2568.5 748.424 2537.06 801.928 2506.08 838.536C2475.1 874.205 2440.84 892.04 2403.3 892.04C2365.75 892.04 2341.81 882.653 2331.49 863.88C2321.16 845.107 2316 811.315 2316 762.504ZM2587.74 897.672C2480.74 1013.13 2427.23 1105.59 2427.23 1175.05C2427.23 1206.96 2432.86 1233.25 2444.13 1253.9C2455.39 1274.55 2470.88 1284.87 2490.59 1284.87C2520.63 1284.87 2541.75 1268.45 2553.95 1235.59C2566.15 1202.74 2575.07 1136.09 2580.7 1035.66L2587.74 897.672Z" fill="black"/>
<path d="M427.256 186.632H437.256V178.518L429.316 176.846L427.256 186.632ZM349.816 169.736L347.391 179.437L347.518 179.469L347.647 179.498L349.816 169.736ZM272.376 151.432L274.436 141.646L274.436 141.646L272.376 151.432ZM93.56 276.744L86.3568 283.68L86.4222 283.748L86.4889 283.815L93.56 276.744ZM213.24 299.272L207.807 290.876L207.69 290.952L207.575 291.032L213.24 299.272ZM256.888 348.552L251.223 340.312L251.097 340.398L250.974 340.488L256.888 348.552ZM62.584 299.272L54.7919 305.54L54.7919 305.54L62.584 299.272ZM41.464 65.544L34.0925 58.7867L34.0925 58.7867L41.464 65.544ZM437.112 99.336L434.064 108.86L444.822 112.303L446.935 101.207L437.112 99.336ZM521.592 126.088H511.592V133.463L518.637 135.641L521.592 126.088ZM867.96 127.496L861.713 119.687L861.59 119.785L861.471 119.888L867.96 127.496ZM846.84 195.08L851.488 203.934L851.574 203.889L851.659 203.842L846.84 195.08ZM521.592 204.936L523.337 195.089L511.418 192.977L511.593 205.081L521.592 204.936ZM518.776 597.768L508.834 596.693L508.82 596.826L508.809 596.96L518.776 597.768ZM497.656 707.592L507.234 710.465L507.244 710.433L507.253 710.401L497.656 707.592ZM452.6 803.336L444.463 797.524L444.442 797.552L444.422 797.581L452.6 803.336ZM376.568 866.696L371.995 857.803L371.942 857.83L371.889 857.858L376.568 866.696ZM148.472 862.472L143.433 871.11L143.484 871.14L143.536 871.169L148.472 862.472ZM117.496 709L125.215 715.357L125.304 715.249L125.39 715.139L117.496 709ZM194.936 727.304L204.127 731.243L204.175 731.131L204.221 731.018L194.936 727.304ZM211.832 811.784L204.966 819.054L205.064 819.147L205.164 819.236L211.832 811.784ZM437.256 425.992V186.632H417.256V425.992H437.256ZM429.316 176.846C411.537 173.104 385.767 167.481 351.985 159.974L347.647 179.498C381.449 187.009 407.306 192.651 425.196 196.417L429.316 176.846ZM352.241 160.035C318.416 151.578 292.458 145.44 274.436 141.646L270.316 161.217C287.964 164.933 313.632 170.998 347.391 179.437L352.241 160.035ZM274.436 141.646C220.685 130.33 177.657 124.536 145.656 124.536V144.536C175.607 144.536 217.059 150.006 270.316 161.217L274.436 141.646ZM145.656 124.536C115.49 124.536 91.2733 128.669 74.2716 138.114C65.6195 142.921 58.668 149.199 53.9211 157.111C49.1652 165.038 46.952 174.055 46.952 183.816H66.952C66.952 177.15 68.4348 171.794 71.0709 167.401C73.716 162.992 77.8525 159.004 83.9844 155.598C96.5507 148.616 116.686 144.536 145.656 144.536V124.536ZM46.952 183.816C46.952 222.895 60.0782 256.391 86.3568 283.68L100.763 269.808C78.2312 246.409 66.952 217.953 66.952 183.816H46.952ZM86.4889 283.815C112.314 309.64 137.306 324.76 161.144 324.76V304.76C145.558 304.76 125.494 294.536 100.631 269.673L86.4889 283.815ZM161.144 324.76C182.706 324.76 202.082 319.078 218.905 307.512L207.575 291.032C194.36 300.116 179.006 304.76 161.144 304.76V324.76ZM218.673 307.668C233.843 297.851 246.001 293.784 255.48 293.784V273.784C240.554 273.784 224.552 280.042 207.807 290.876L218.673 307.668ZM255.48 293.784C261.767 293.784 264.683 295.42 266.162 296.986C267.742 298.659 269.416 302.083 269.416 309.128H289.416C289.416 299.276 287.101 290.029 280.702 283.254C274.202 276.372 265.151 273.784 255.48 273.784V293.784ZM269.416 309.128C269.416 321.284 263.975 331.544 251.223 340.312L262.553 356.792C279.838 344.909 289.416 328.886 289.416 309.128H269.416ZM250.974 340.488C239.495 348.906 219.607 354.04 189.304 354.04V374.04C220.953 374.04 246.121 368.849 262.802 356.616L250.974 340.488ZM189.304 354.04C142.954 354.04 103.454 334.128 70.3761 293.004L54.7919 305.54C91.1753 350.773 136.155 374.04 189.304 374.04V354.04ZM70.3761 293.004C36.7362 251.182 20.488 209.21 20.488 166.92H0.488001C0.488001 214.742 18.9704 261.005 54.7919 305.54L70.3761 293.004ZM20.488 166.92C20.488 123.2 30.5255 92.2758 48.8355 72.3012L34.0925 58.7867C11.1011 83.8682 0.488001 120.528 0.488001 166.92H20.488ZM48.8355 72.3012C67.563 51.8713 90.6877 41.752 118.904 41.752V21.752C85.1683 21.752 56.6663 34.1607 34.0925 58.7867L48.8355 72.3012ZM118.904 41.752C188.602 41.752 293.428 63.8567 434.064 108.86L440.16 89.8117C299.196 44.7032 191.883 21.752 118.904 21.752V41.752ZM446.935 101.207C452.452 72.2432 460.194 51.7005 469.537 38.6203C478.591 25.9448 488.803 20.6319 500.472 20.6319V0.631927C481.165 0.631927 465.329 10.1031 453.263 26.9956C441.486 43.4833 433.036 67.2927 427.289 97.4648L446.935 101.207ZM500.472 20.6319C498.571 20.6319 499.002 19.1173 500.945 22.6589C502.816 26.0668 504.782 32.0396 506.475 41.2953C509.827 59.6185 511.592 87.7459 511.592 126.088H531.592C531.592 87.4593 529.837 57.8587 526.149 37.6965C524.322 27.7096 521.889 19.2504 518.479 13.037C515.142 6.95724 509.413 0.631927 500.472 0.631927V20.6319ZM518.637 135.641C610.254 163.977 689.68 178.328 756.728 178.328V158.328C692.363 158.328 615.031 144.519 524.547 116.534L518.637 135.641ZM756.728 178.328C801.329 178.328 840.711 163.881 874.449 135.104L861.471 119.888C831.38 145.553 796.608 158.328 756.728 158.328V178.328ZM874.207 135.305C883.114 128.179 888.83 126.232 891.896 126.232V106.232C881.821 106.232 871.579 111.794 861.713 119.687L874.207 135.305ZM891.896 126.232C893.077 126.232 893.739 126.365 894.024 126.448C894.278 126.522 894.092 126.513 893.759 126.222C893.599 126.082 893.451 125.916 893.329 125.737C893.208 125.561 893.142 125.416 893.111 125.336C893.055 125.19 893.16 125.374 893.16 126.088H913.16C913.16 120.888 911.613 115.268 906.929 111.17C902.501 107.295 896.889 106.232 891.896 106.232V126.232ZM893.16 126.088C893.16 145.757 878.669 166.161 842.021 186.318L851.659 203.842C890.105 182.697 913.16 157.107 913.16 126.088H893.16ZM842.192 186.226C806.382 205.026 762.999 214.648 711.672 214.648V234.648C765.475 234.648 812.204 224.558 851.488 203.934L842.192 186.226ZM711.672 214.648C659.882 214.648 597.14 208.168 523.337 195.089L519.847 214.783C594.353 227.986 658.331 234.648 711.672 234.648V214.648ZM511.593 205.081C513.47 334.622 514.408 423.727 514.408 472.456H534.408C534.408 423.563 533.468 334.322 531.591 204.791L511.593 205.081ZM514.408 472.456C514.408 521.037 512.538 562.428 508.834 596.693L528.718 598.843C532.523 563.646 534.408 521.497 534.408 472.456H514.408ZM508.809 596.96C506.055 630.92 499.16 666.855 488.059 704.783L507.253 710.401C518.68 671.358 525.865 634.077 528.743 598.576L508.809 596.96ZM488.078 704.719C477.064 741.43 462.478 772.302 444.463 797.524L460.737 809.148C480.269 781.804 495.72 748.847 507.234 710.465L488.078 704.719ZM444.422 797.581C427.68 821.372 403.685 841.505 371.995 857.803L381.142 875.589C415.158 858.095 441.85 835.988 460.778 809.091L444.422 797.581ZM371.889 857.858C341.673 873.855 305.793 882.04 263.928 882.04V902.04C308.42 902.04 347.634 893.329 381.247 875.534L371.889 857.858ZM263.928 882.04C223.315 882.04 186.546 872.583 153.408 853.775L143.536 871.169C179.859 891.785 220.061 902.04 263.928 902.04V882.04ZM153.511 853.834C122.995 836.033 107.784 808.939 107.784 770.952H87.784C87.784 815.567 106.365 849.487 143.433 871.11L153.511 853.834ZM107.784 770.952C107.784 747.386 113.86 729.146 125.215 715.357L109.777 702.643C94.8498 720.769 87.784 743.83 87.784 770.952H107.784ZM125.39 715.139C136.617 700.704 151.057 693.656 169.592 693.656V673.656C144.948 673.656 124.657 683.504 109.602 702.861L125.39 715.139ZM169.592 693.656C180.406 693.656 187.115 694.944 190.769 696.619C192.472 697.399 193.041 698.052 193.185 698.25C193.25 698.34 193.384 698.501 193.384 699.144H213.384C213.384 694.624 212.11 690.268 209.359 686.486C206.687 682.812 203.032 680.238 199.103 678.437C191.493 674.949 181.306 673.656 169.592 673.656V693.656ZM193.384 699.144C193.384 699.944 193.057 702.285 191.694 706.831C190.404 711.13 188.41 716.694 185.651 723.59L204.221 731.018C207.094 723.834 209.324 717.664 210.85 712.577C212.303 707.736 213.384 703.037 213.384 699.144H193.384ZM185.745 723.365C179.588 737.731 176.488 752.68 176.488 768.136H196.488C196.488 755.432 199.02 743.159 204.127 731.243L185.745 723.365ZM176.488 768.136C176.488 785.515 187.497 802.556 204.966 819.054L218.698 804.514C202.375 789.097 196.488 777.04 196.488 768.136H176.488ZM205.164 819.236C225.42 837.36 253.473 845.72 287.864 845.72V825.72C256.549 825.72 233.914 818.123 218.5 804.332L205.164 819.236ZM287.864 845.72C340.851 845.72 378.16 806.217 401.875 736.509C425.648 666.632 437.256 562.868 437.256 425.992H417.256C417.256 562.268 405.632 663.368 382.941 730.067C360.192 796.935 327.805 825.72 287.864 825.72V845.72ZM703.114 808.968H693.114V809.129L693.119 809.29L703.114 808.968ZM704.522 852.616H714.522V852.455L714.517 852.294L704.522 852.616ZM617.226 883.592L614.194 893.121L614.393 893.185L614.595 893.24L617.226 883.592ZM593.29 747.016L583.329 746.137L583.323 746.204L583.318 746.272L593.29 747.016ZM729.866 62.7279L723.806 54.7736L723.787 54.7876L723.769 54.8017L729.866 62.7279ZM818.57 71.176L809.466 75.314L809.466 75.314L818.57 71.176ZM791.818 378.12L801.145 381.726L801.145 381.726L791.818 378.12ZM708.746 540.04L700.746 534.04L698.878 536.53L698.754 539.64L708.746 540.04ZM707.338 649.864H697.338V682.892L715.659 655.411L707.338 649.864ZM766.474 554.12L757.948 548.894L766.474 554.12ZM856.586 425.992L849.267 419.178L849.203 419.247L849.14 419.317L856.586 425.992ZM976.266 404.872L969.681 412.398L969.794 412.496L969.909 412.591L976.266 404.872ZM986.122 637.192L976.189 636.037L976.183 636.088L976.178 636.139L986.122 637.192ZM981.898 820.232V830.232H982.192L982.485 830.215L981.898 820.232ZM1048.07 761.096L1056.14 767.001L1056.18 766.955L1056.21 766.908L1048.07 761.096ZM1131.15 610.44L1122.07 606.249L1122.04 606.307L1122.01 606.366L1131.15 610.44ZM1150.86 655.496L1141.83 651.202L1141.82 651.221L1141.81 651.241L1150.86 655.496ZM880.522 869.512L873.451 876.583L873.843 876.975L874.275 877.321L880.522 869.512ZM877.706 683.656L867.746 682.764L867.74 682.832L867.735 682.901L877.706 683.656ZM784.778 593.544L792.891 599.39L792.911 599.362L792.931 599.334L784.778 593.544ZM711.562 716.04L721.418 717.73L721.429 717.665L721.44 717.6L711.562 716.04ZM729.866 279.56L719.981 278.046L719.98 278.052L729.866 279.56ZM711.562 472.456L701.575 471.944L720.578 476.781L711.562 472.456ZM693.119 809.29L694.527 852.938L714.517 852.294L713.109 808.646L693.119 809.29ZM694.522 852.616C694.522 865.133 692.676 872.902 690.208 877.223C688.216 880.708 685.88 882.04 681.994 882.04V902.04C693.127 902.04 702.055 896.802 707.572 887.145C712.613 878.325 714.522 866.382 714.522 852.616H694.522ZM681.994 882.04C660.308 882.04 639.606 879.331 619.857 873.944L614.595 893.24C636.147 899.117 658.624 902.04 681.994 902.04V882.04ZM620.258 874.063C610.479 870.951 604.091 867.669 600.326 864.588C596.753 861.665 596.25 859.579 596.25 858.248H576.25C576.25 867.243 580.91 874.543 587.662 880.068C594.222 885.435 603.323 889.662 614.194 893.121L620.258 874.063ZM596.25 858.248C596.25 847.458 598.553 810.869 603.262 747.76L583.318 746.272C578.641 808.944 576.25 846.51 576.25 858.248H596.25ZM603.251 747.895C608.889 684.002 611.738 635.772 611.738 603.4H591.738C591.738 634.857 588.955 682.371 583.329 746.137L603.251 747.895ZM611.738 603.4V521.736H591.738V603.4H611.738ZM611.738 521.736C611.738 402.081 622.382 304.749 643.402 229.449C664.439 154.085 695.608 101.696 735.963 70.6542L723.769 54.8017C678.705 89.4664 645.81 146.432 624.138 224.071C602.448 301.773 591.738 401.092 591.738 521.736H611.738ZM735.926 70.6823C754.256 56.7171 772.361 50.2 790.41 50.2V30.2C767.158 30.2 744.9 38.7015 723.806 54.7736L735.926 70.6823ZM790.41 50.2C791.151 50.2 793.364 50.5715 797.091 54.6707C800.786 58.7357 804.97 65.4214 809.466 75.314L827.674 67.038C822.784 56.2799 817.581 47.4776 811.889 41.2172C806.229 34.9911 799.055 30.2 790.41 30.2V50.2ZM809.466 75.314C818.059 94.2179 822.65 119.416 822.65 151.432H842.65C842.65 117.741 837.854 89.4353 827.674 67.0379L809.466 75.314ZM822.65 151.432C822.65 231.01 809.237 305.342 782.491 374.514L801.145 381.726C828.841 310.098 842.65 233.304 842.65 151.432H822.65ZM782.491 374.514C755.426 444.51 728.126 497.533 700.746 534.04L716.746 546.04C745.686 507.454 773.768 452.53 801.145 381.726L782.491 374.514ZM698.754 539.64C697.807 563.319 697.338 600.094 697.338 649.864H717.338C717.338 600.135 717.808 563.695 718.738 540.44L698.754 539.64ZM715.659 655.411C719.552 649.571 739.418 617.401 775 559.346L757.948 548.894C722.192 607.234 702.633 638.893 699.018 644.317L715.659 655.411ZM775 559.346C810.575 501.303 840.238 459.207 864.032 432.667L849.14 419.317C824.124 447.22 793.712 490.543 757.948 548.894L775 559.346ZM863.905 432.806C888.871 405.99 908.867 395.16 924.17 395.16V375.16C900.049 375.16 874.989 391.551 849.267 419.178L863.905 432.806ZM924.17 395.16C941.427 395.16 956.46 400.83 969.681 412.398L982.851 397.346C966.034 382.632 946.337 375.16 924.17 375.16V395.16ZM969.909 412.591C983.689 423.939 990.202 437.592 990.202 454.152H1010.2C1010.2 431.288 1000.76 412.087 982.623 397.153L969.909 412.591ZM990.202 454.152C990.202 494.856 985.565 555.404 976.189 636.037L996.055 638.347C1005.45 557.53 1010.2 496.05 1010.2 454.152H990.202ZM976.178 636.139C967.748 715.756 963.45 767.026 963.45 789.256H983.45C983.45 768.307 987.6 718.202 996.066 638.245L976.178 636.139ZM963.45 789.256C963.45 799.808 964.146 808.635 965.914 815.119C966.79 818.33 968.141 821.791 970.462 824.628C973.029 827.765 976.926 830.232 981.898 830.232V810.232C984.054 810.232 985.487 811.409 985.942 811.964C986.151 812.219 985.742 811.808 985.21 809.857C984.162 806.015 983.45 799.354 983.45 789.256H963.45ZM982.485 830.215C993.957 829.54 1005.61 822.442 1017.07 812.201C1028.84 801.684 1041.87 786.511 1056.14 767.001L1040 755.191C1026.12 774.167 1014.04 788.092 1003.75 797.287C993.149 806.758 985.796 809.985 981.311 810.249L982.485 830.215ZM1056.21 766.908C1084.88 726.779 1112.88 675.927 1140.28 614.514L1122.01 606.366C1094.97 666.98 1067.59 716.565 1039.94 755.284L1056.21 766.908ZM1140.23 614.631C1154.28 584.183 1165.42 561.57 1173.69 546.645C1177.84 539.14 1181.11 533.868 1183.54 530.58C1184.78 528.907 1185.55 528.081 1185.9 527.773C1186.71 527.037 1185.14 528.92 1181.83 528.92V508.92C1177.12 508.92 1173.79 511.756 1172.49 512.927C1170.72 514.526 1169.03 516.56 1167.45 518.7C1164.25 523.039 1160.48 529.207 1156.19 536.955C1147.56 552.537 1136.17 575.684 1122.07 606.249L1140.23 614.631ZM1181.83 528.92C1182.55 528.92 1182.73 529.025 1182.59 528.969C1182.51 528.938 1182.36 528.872 1182.18 528.751C1182.01 528.629 1181.84 528.481 1181.7 528.321C1181.41 527.988 1181.4 527.802 1181.47 528.056C1181.56 528.341 1181.69 529.003 1181.69 530.184H1201.69C1201.69 525.192 1200.63 519.579 1196.75 515.151C1192.65 510.467 1187.03 508.92 1181.83 508.92V528.92ZM1181.69 530.184C1181.69 553.973 1169.07 593.901 1141.83 651.202L1159.89 659.79C1187.09 602.574 1201.69 558.96 1201.69 530.184H1181.69ZM1141.81 651.241C1104.86 729.82 1071.1 788.157 1040.59 826.697C1009.59 865.854 983.931 882.04 963.594 882.04V902.04C993.945 902.04 1024.84 878.802 1056.27 839.111C1088.18 798.803 1122.7 738.868 1159.91 659.751L1141.81 651.241ZM963.594 882.04C928.126 882.04 903.052 874.73 886.769 861.703L874.275 877.321C895.539 894.332 925.846 902.04 963.594 902.04V882.04ZM887.593 862.441C886.48 861.328 884.487 857.926 882.946 850.003C881.475 842.437 880.666 832.117 880.666 818.824H860.666C860.666 832.752 861.5 844.491 863.314 853.821C865.059 862.794 867.994 871.126 873.451 876.583L887.593 862.441ZM880.666 818.824C880.666 791.07 882.986 746.337 887.677 684.411L867.735 682.901C863.039 744.879 860.666 790.258 860.666 818.824H880.666ZM887.666 684.548C893.303 621.598 896.154 574.299 896.154 542.856H876.154C876.154 573.365 873.373 619.932 867.746 682.764L887.666 684.548ZM896.154 542.856C896.154 527.041 894.753 514.009 891.328 504.591C889.595 499.825 887.109 495.318 883.407 491.924C879.487 488.33 874.624 486.392 869.258 486.392V506.392C869.524 506.392 869.589 506.389 869.893 506.668C870.415 507.146 871.449 508.447 872.532 511.425C874.739 517.495 876.154 527.695 876.154 542.856H896.154ZM869.258 486.392C865.545 486.392 862.238 487.775 859.747 489.139C857.11 490.583 854.422 492.548 851.732 494.812C846.343 499.347 840.027 505.863 832.848 514.118C818.444 530.683 799.681 555.286 776.625 587.754L792.931 599.334C815.869 567.033 834.184 543.061 847.94 527.242C854.841 519.305 860.376 513.677 864.608 510.115C866.729 508.332 868.294 507.261 869.353 506.681C870.558 506.021 870.389 506.392 869.258 506.392V486.392ZM776.665 587.698C753.593 619.716 735.807 646.142 723.394 666.91C717.189 677.291 712.251 686.385 708.651 694.143C705.114 701.766 702.604 708.653 701.684 714.48L721.44 717.6C721.928 714.509 723.525 709.605 726.793 702.561C729.999 695.652 734.564 687.205 740.562 677.17C752.554 657.106 769.968 631.202 792.891 599.39L776.665 587.698ZM701.706 714.35C695.992 747.683 693.114 779.228 693.114 808.968H713.114C713.114 780.51 715.868 750.104 721.418 717.73L701.706 714.35ZM804.634 182.408C804.634 162.48 803.351 146.654 800.436 135.522C798.989 129.997 796.935 124.798 793.785 120.79C790.404 116.486 785.458 113.272 779.146 113.272V133.272C777.997 133.272 777.568 132.522 778.059 133.146C778.781 134.066 779.954 136.259 781.088 140.59C783.336 149.17 784.634 162.912 784.634 182.408H804.634ZM779.146 113.272C769.453 113.272 762.653 120.592 758.138 127.652C753.269 135.263 748.819 146.01 744.617 159.337C736.167 186.135 727.98 225.818 719.981 278.046L739.751 281.074C747.709 229.11 755.714 190.649 763.691 165.351C767.702 152.63 771.524 143.841 774.986 138.428C778.801 132.464 780.391 133.272 779.146 133.272V113.272ZM719.98 278.052C711.469 333.846 705.342 398.49 701.575 471.944L721.549 472.968C725.291 399.99 731.367 336.037 739.752 281.068L719.98 278.052ZM720.578 476.781C776.24 360.74 804.634 262.478 804.634 182.408H784.634C784.634 258.156 757.646 353.26 702.546 468.131L720.578 476.781ZM1231.25 517.512V527.512H1231.79L1232.33 527.453L1231.25 517.512ZM1308.69 509.064V499.064H1308.14L1307.6 499.123L1308.69 509.064ZM1326.99 644.232L1317.06 643.034L1317.05 643.118L1317.04 643.203L1326.99 644.232ZM1326.99 820.232V830.232H1327.28L1327.58 830.215L1326.99 820.232ZM1393.17 761.096L1401.24 767.001L1401.27 766.955L1401.3 766.908L1393.17 761.096ZM1476.24 610.44L1467.16 606.249L1467.13 606.307L1467.11 606.366L1476.24 610.44ZM1495.95 655.496L1486.92 651.202L1486.91 651.221L1486.9 651.241L1495.95 655.496ZM1225.61 869.512L1218.54 876.583L1218.93 876.975L1219.37 877.321L1225.61 869.512ZM1239.69 554.12L1249.28 556.978L1253.11 544.12H1239.69V554.12ZM1125.65 502.024L1134.14 496.745L1134.12 496.714L1134.1 496.684L1125.65 502.024ZM1122.83 382.344L1131.57 387.2L1122.83 382.344ZM1210.13 385.16L1202.13 391.16L1202.3 391.386L1202.48 391.601L1210.13 385.16ZM1212.94 513.288L1204.3 508.249L1199.82 515.943L1206.94 521.288L1212.94 513.288ZM1232.33 527.453L1309.77 519.005L1307.6 499.123L1230.16 507.571L1232.33 527.453ZM1308.69 519.064C1311.73 519.064 1315.58 520.537 1320.08 527.283L1336.72 516.189C1329.95 506.039 1320.66 499.064 1308.69 499.064V519.064ZM1320.08 527.283C1324.71 534.229 1326.85 541.238 1326.85 548.488H1346.85C1346.85 536.965 1343.35 526.139 1336.72 516.189L1320.08 527.283ZM1326.85 548.488C1326.85 557.107 1323.68 588.226 1317.06 643.034L1336.92 645.43C1343.44 591.353 1346.85 558.642 1346.85 548.488H1326.85ZM1317.04 643.203C1311.4 697.783 1308.54 741.352 1308.54 773.768H1328.54C1328.54 742.354 1331.32 699.566 1336.94 645.261L1317.04 643.203ZM1308.54 773.768C1308.54 789.398 1309.24 801.747 1310.82 810.405C1311.59 814.639 1312.7 818.782 1314.52 822.117C1316.25 825.303 1320.13 830.232 1326.99 830.232V810.232C1331.03 810.232 1332.45 813.225 1332.07 812.539C1331.78 812.002 1331.13 810.337 1330.49 806.827C1329.25 799.997 1328.54 789.114 1328.54 773.768H1308.54ZM1327.58 830.215C1339.05 829.54 1350.7 822.442 1362.17 812.201C1373.93 801.684 1386.96 786.511 1401.24 767.001L1385.1 755.191C1371.21 774.167 1359.13 788.092 1348.84 797.287C1338.24 806.758 1330.89 809.985 1326.4 810.249L1327.58 830.215ZM1401.3 766.908C1429.97 726.779 1457.97 675.927 1485.37 614.514L1467.11 606.366C1440.06 666.98 1412.68 716.565 1385.03 755.284L1401.3 766.908ZM1485.32 614.631C1499.37 584.183 1510.51 561.57 1518.78 546.645C1522.93 539.14 1526.21 533.868 1528.63 530.58C1529.87 528.907 1530.65 528.081 1530.99 527.773C1531.8 527.037 1530.23 528.92 1526.93 528.92V508.92C1522.21 508.92 1518.88 511.756 1517.58 512.927C1515.81 514.526 1514.13 516.56 1512.55 518.7C1509.34 523.039 1505.57 529.207 1501.28 536.955C1492.65 552.537 1481.27 575.684 1467.16 606.249L1485.32 614.631ZM1526.93 528.92C1527.64 528.92 1527.82 529.025 1527.68 528.969C1527.6 528.938 1527.45 528.872 1527.28 528.751C1527.1 528.629 1526.93 528.481 1526.79 528.321C1526.5 527.988 1526.49 527.802 1526.57 528.056C1526.65 528.341 1526.78 529.003 1526.78 530.184H1546.78C1546.78 525.192 1545.72 519.579 1541.84 515.151C1537.75 510.467 1532.13 508.92 1526.93 508.92V528.92ZM1526.78 530.184C1526.78 553.973 1514.16 593.901 1486.92 651.202L1504.98 659.79C1532.18 602.574 1546.78 558.96 1546.78 530.184H1526.78ZM1486.9 651.241C1449.95 729.82 1416.19 788.157 1385.68 826.697C1354.68 865.854 1329.02 882.04 1308.69 882.04V902.04C1339.04 902.04 1369.94 878.802 1401.36 839.111C1433.27 798.803 1467.8 738.868 1505 659.751L1486.9 651.241ZM1308.69 882.04C1273.22 882.04 1248.14 874.73 1231.86 861.703L1219.37 877.321C1240.63 894.332 1270.94 902.04 1308.69 902.04V882.04ZM1232.69 862.441C1233.35 863.102 1233.19 863.3 1232.65 861.891C1232.19 860.669 1231.65 858.797 1231.09 856.124C1229.98 850.789 1229 843.193 1228.19 833.158C1226.58 813.143 1225.76 784.476 1225.76 747.016H1205.76C1205.76 784.65 1206.58 813.945 1208.25 834.762C1209.09 845.143 1210.16 853.68 1211.51 860.196C1212.19 863.448 1212.98 866.431 1213.96 868.993C1214.86 871.368 1216.24 874.279 1218.54 876.583L1232.69 862.441ZM1225.76 747.016C1225.76 672.58 1233.67 609.298 1249.28 556.978L1230.11 551.262C1213.8 605.95 1205.76 671.265 1205.76 747.016H1225.76ZM1239.69 544.12C1187.42 544.12 1153.31 527.592 1134.14 496.745L1117.15 507.303C1141.16 545.917 1183.08 564.12 1239.69 564.12V544.12ZM1134.1 496.684C1123.92 480.557 1118.75 462.252 1118.75 441.48H1098.75C1098.75 465.764 1104.85 487.821 1117.19 507.364L1134.1 496.684ZM1118.75 441.48C1118.75 420.368 1123.14 402.381 1131.57 387.2L1114.09 377.488C1103.75 396.098 1098.75 417.536 1098.75 441.48H1118.75ZM1131.57 387.2C1139.5 372.927 1149.58 367 1162.25 367V347C1141.14 347 1124.93 357.969 1114.09 377.488L1131.57 387.2ZM1162.25 367C1176 367 1189.28 374.038 1202.13 391.16L1218.13 379.16C1202.81 358.735 1184.18 347 1162.25 347V367ZM1202.48 391.601C1216.04 407.702 1222.65 425.621 1222.65 445.704H1242.65C1242.65 420.731 1234.25 398.288 1217.78 378.719L1202.48 391.601ZM1222.65 445.704C1222.65 466.199 1216.7 487.006 1204.3 508.249L1221.58 518.327C1235.47 494.514 1242.65 470.265 1242.65 445.704H1222.65ZM1206.94 521.288C1213.34 526.088 1222.16 527.512 1231.25 527.512V507.512C1223.44 507.512 1220.05 506.12 1218.94 505.288L1206.94 521.288ZM1546.47 152.84L1540.83 144.587L1546.47 152.84ZM1609.83 254.216L1617.92 260.098L1617.98 260.013L1618.04 259.927L1609.83 254.216ZM1477.48 869.512L1470.41 876.583L1470.8 876.975L1471.23 877.321L1477.48 869.512ZM1476.07 597.768L1466.1 597.077L1466.09 597.123L1466.09 597.169L1476.07 597.768ZM1492.97 444.296L1484.49 438.996L1484.49 438.996L1492.97 444.296ZM1536.62 402.056L1530.16 394.422L1530.16 394.422L1536.62 402.056ZM1605.61 479.496L1595.82 477.47L1595.78 477.633L1595.75 477.797L1605.61 479.496ZM1588.71 538.632L1579.91 533.891L1579.63 534.414L1579.41 534.967L1588.71 538.632ZM1578.86 820.232V830.232H1579.15L1579.44 830.215L1578.86 820.232ZM1645.03 761.096L1653.1 767.001L1653.14 766.955L1653.17 766.908L1645.03 761.096ZM1728.11 610.44L1719.03 606.249L1719 606.307L1718.97 606.366L1728.11 610.44ZM1747.82 655.496L1738.79 651.202L1738.78 651.221L1738.77 651.241L1747.82 655.496ZM1529.72 196.488C1529.72 183.805 1536.16 172.014 1552.12 161.093L1540.83 144.587C1521.12 158.071 1509.72 175.379 1509.72 196.488H1529.72ZM1552.12 161.093C1569.12 149.461 1583.09 144.536 1594.35 144.536V124.536C1577.44 124.536 1559.49 131.814 1540.83 144.587L1552.12 161.093ZM1594.35 144.536C1605.09 144.536 1611.43 147.556 1615.32 152.016C1619.43 156.74 1622.36 164.863 1622.36 178.184H1642.36C1642.36 162.406 1638.96 148.705 1630.4 138.88C1621.61 128.791 1608.95 124.536 1594.35 124.536V144.536ZM1622.36 178.184C1622.36 205.468 1615.35 228.769 1601.62 248.505L1618.04 259.927C1634.35 236.484 1642.36 209.097 1642.36 178.184H1622.36ZM1601.75 248.334C1588.75 266.204 1570.74 275.192 1546.47 275.192V295.192C1576.65 295.192 1600.88 283.53 1617.92 260.098L1601.75 248.334ZM1546.47 275.192C1545.19 275.192 1543.88 274.814 1542.18 272.939C1540.23 270.779 1538 266.804 1535.98 260.129C1531.96 246.784 1529.72 225.799 1529.72 196.488H1509.72C1509.72 226.313 1511.94 249.68 1516.83 265.903C1519.28 274.012 1522.62 281.125 1527.35 286.357C1532.35 291.874 1538.84 295.192 1546.47 295.192V275.192ZM1560.55 882.04C1525.09 882.04 1500.01 874.73 1483.73 861.703L1471.23 877.321C1492.5 894.332 1522.8 902.04 1560.55 902.04V882.04ZM1484.55 862.441C1484.61 862.499 1484.39 862.291 1484 861.555C1483.61 860.835 1483.16 859.779 1482.67 858.298C1481.69 855.312 1480.77 851.136 1479.99 845.598C1478.44 834.532 1477.62 819.103 1477.62 799.112H1457.62C1457.62 819.483 1458.45 835.969 1460.19 848.37C1461.05 854.565 1462.18 860.011 1463.67 864.534C1465.09 868.869 1467.14 873.31 1470.41 876.583L1484.55 862.441ZM1477.62 799.112C1477.62 759.077 1480.42 692.225 1486.06 598.367L1466.09 597.169C1460.46 691.044 1457.62 758.422 1457.62 799.112H1477.62ZM1486.05 598.459C1489.33 551.099 1492.37 514.767 1495.16 489.39C1496.56 476.685 1497.89 466.869 1499.12 459.845C1499.74 456.325 1500.31 453.654 1500.83 451.742C1501.41 449.556 1501.71 449.182 1501.45 449.596L1484.49 438.996C1483.06 441.287 1482.15 444.154 1481.5 446.574C1480.78 449.267 1480.1 452.565 1479.42 456.379C1478.08 464.022 1476.7 474.328 1475.29 487.202C1472.45 512.982 1469.39 549.631 1466.1 597.077L1486.05 598.459ZM1501.45 449.596C1503.09 446.967 1507.11 442.299 1514.36 435.29C1521.41 428.466 1530.96 419.943 1543.08 409.69L1530.16 394.422C1517.87 404.819 1507.95 413.661 1500.45 420.918C1493.14 427.989 1487.54 434.115 1484.49 438.996L1501.45 449.596ZM1543.08 409.69C1554.99 399.606 1565.23 392.313 1573.82 387.586C1582.56 382.779 1588.8 381.08 1592.94 381.08V361.08C1583.94 361.08 1574.22 364.544 1564.18 370.062C1554 375.66 1542.65 383.855 1530.16 394.422L1543.08 409.69ZM1592.94 381.08C1594.14 381.08 1594.93 381.39 1595.73 382.064C1596.71 382.894 1598.1 384.643 1599.48 388.128C1602.29 395.263 1604.06 407.114 1604.06 424.584H1624.06C1624.06 406.384 1622.3 391.484 1618.08 380.784C1615.93 375.352 1612.93 370.413 1608.63 366.784C1604.15 363 1598.77 361.08 1592.94 361.08V381.08ZM1604.06 424.584C1604.06 432.779 1601.48 450.086 1595.82 477.47L1615.4 481.522C1621 454.463 1624.06 435.162 1624.06 424.584H1604.06ZM1595.75 477.797C1591.1 504.793 1585.68 523.175 1579.91 533.891L1597.52 543.373C1604.89 529.684 1610.73 508.642 1615.46 481.195L1595.75 477.797ZM1579.41 534.967C1572.69 552.016 1568.06 581.444 1565.01 622.011C1561.94 662.961 1560.41 716.391 1560.41 782.216H1580.41C1580.41 716.628 1581.93 663.754 1584.96 623.509C1588.01 582.882 1592.53 556.224 1598.02 542.297L1579.41 534.967ZM1560.41 782.216C1560.41 795.066 1561.11 805.46 1562.76 812.897C1563.57 816.543 1564.78 820.315 1566.84 823.403C1569.03 826.689 1572.99 830.232 1578.86 830.232V810.232C1581.91 810.232 1583.4 812.191 1583.48 812.309C1583.5 812.337 1583.34 812.095 1583.09 811.413C1582.84 810.749 1582.56 809.816 1582.28 808.559C1581.12 803.324 1580.41 794.71 1580.41 782.216H1560.41ZM1579.44 830.215C1590.92 829.54 1602.57 822.442 1614.03 812.201C1625.8 801.684 1638.83 786.511 1653.1 767.001L1636.96 755.191C1623.08 774.167 1611 788.092 1600.71 797.287C1590.11 806.758 1582.76 809.985 1578.27 810.249L1579.44 830.215ZM1653.17 766.908C1681.83 726.779 1709.84 675.927 1737.24 614.514L1718.97 606.366C1691.93 666.98 1664.55 716.565 1636.9 755.284L1653.17 766.908ZM1737.18 614.631C1751.24 584.183 1762.38 561.57 1770.64 546.645C1774.8 539.14 1778.07 533.868 1780.5 530.58C1781.74 528.907 1782.51 528.081 1782.85 527.773C1783.67 527.037 1782.1 528.92 1778.79 528.92V508.92C1774.08 508.92 1770.75 511.756 1769.45 512.927C1767.68 514.526 1765.99 516.56 1764.41 518.7C1761.21 523.039 1757.44 529.207 1753.15 536.955C1744.52 552.537 1733.13 575.684 1719.03 606.249L1737.18 614.631ZM1778.79 528.92C1779.51 528.92 1779.69 529.025 1779.55 528.969C1779.47 528.938 1779.32 528.872 1779.14 528.751C1778.97 528.629 1778.8 528.481 1778.66 528.321C1778.37 527.988 1778.36 527.802 1778.43 528.056C1778.52 528.341 1778.65 529.003 1778.65 530.184H1798.65C1798.65 525.192 1797.59 519.579 1793.71 515.151C1789.61 510.467 1783.99 508.92 1778.79 508.92V528.92ZM1778.65 530.184C1778.65 553.973 1766.03 593.901 1738.79 651.202L1756.85 659.79C1784.05 602.574 1798.65 558.96 1798.65 530.184H1778.65ZM1738.77 651.241C1701.82 729.82 1668.06 788.157 1637.54 826.697C1606.54 865.854 1580.89 882.04 1560.55 882.04V902.04C1590.9 902.04 1621.8 878.802 1653.23 839.111C1685.14 798.803 1719.66 738.868 1756.87 659.751L1738.77 651.241ZM1923.54 587.912L1914.02 590.972L1916.86 599.806L1925.88 597.634L1923.54 587.912ZM2050.26 541.448L2045.51 532.651L2045.46 532.678L2045.41 532.706L2050.26 541.448ZM2085.46 562.568L2091.4 570.614L2091.43 570.591L2091.46 570.568L2085.46 562.568ZM1937.62 637.192L1934.33 627.751L1925.6 630.797L1927.95 639.732L1937.62 637.192ZM1944.66 1183.5L1954.36 1185.92L1954.37 1185.91L1954.37 1185.89L1944.66 1183.5ZM1891.16 1293.32L1883.6 1286.77L1883.54 1286.84L1883.48 1286.92L1891.16 1293.32ZM1741.91 1296.14L1751.1 1292.2L1751.06 1292.1L1751.01 1292L1741.91 1296.14ZM1717.97 1207.43L1707.99 1208.07L1708 1208.08L1708 1208.1L1717.97 1207.43ZM1736.28 631.56L1746.22 632.621L1746.84 626.851L1742.13 623.453L1736.28 631.56ZM1708.12 461.192L1715.93 467.439L1716 467.347L1716.07 467.252L1708.12 461.192ZM1764.44 423.176L1766.86 432.877L1773.26 431.278L1774.31 424.765L1764.44 423.176ZM1802.45 211.976L1792.69 209.807L1792.68 209.881L1792.66 209.955L1802.45 211.976ZM1861.59 68.3599L1869.71 74.192L1869.75 74.1435L1869.78 74.0946L1861.59 68.3599ZM1868.63 466.824L1860.03 461.724L1856.74 467.274L1860.44 472.559L1868.63 466.824ZM1824.98 658.312V648.312H1815.69L1815.01 657.582L1824.98 658.312ZM1906.65 1169.42L1896.96 1166.93L1896.96 1166.95L1896.95 1166.96L1906.65 1169.42ZM1903.83 647.048L1913.59 644.858L1911.31 634.704L1901.25 637.386L1903.83 647.048ZM1846.1 447.112L1836.18 445.882L1854.66 452.283L1846.1 447.112ZM1920.73 288.008L1930.11 291.472L1930.12 291.449L1930.12 291.425L1920.73 288.008ZM1892.57 173.96L1882.89 171.441L1882.87 171.503L1882.86 171.566L1892.57 173.96ZM1846.1 503.432L1854.37 497.809L1845.58 484.873L1837.53 498.287L1846.1 503.432ZM1837.65 517.512L1829.08 512.367L1827.92 514.297L1827.7 516.536L1837.65 517.512ZM1830.61 589.32L1820.66 588.344L1819.86 596.475L1827.67 598.878L1830.61 589.32ZM1888.34 593.544L1889.76 603.443L1901.62 601.749L1897.83 590.382L1888.34 593.544ZM1758.81 458.376L1768.67 460.02L1771.4 443.637L1755.64 448.889L1758.81 458.376ZM1748.95 534.408L1740.43 539.649L1755.68 564.42L1758.89 535.512L1748.95 534.408ZM1925.88 597.634C1977.17 585.288 2020.32 569.524 2055.12 550.19L2045.41 532.706C2012.62 550.918 1971.29 566.13 1921.2 578.19L1925.88 597.634ZM2055.02 550.245C2072.37 540.868 2085.55 533.869 2094.6 529.226C2099.14 526.898 2102.56 525.207 2104.9 524.115C2106.09 523.563 2106.88 523.221 2107.35 523.038C2107.59 522.943 2107.62 522.942 2107.49 522.98C2107.42 523 2107.22 523.058 2106.93 523.117C2106.7 523.165 2106.05 523.288 2105.17 523.288V503.288C2103.49 503.288 2102.11 503.713 2101.77 503.816C2101.15 504 2100.56 504.22 2100.05 504.418C2099.02 504.821 2097.8 505.36 2096.47 505.981C2093.77 507.236 2090.09 509.065 2085.47 511.43C2076.22 516.174 2062.89 523.255 2045.51 532.651L2055.02 550.245ZM2105.17 523.288C2105.18 523.288 2105.06 523.289 2104.84 523.236C2104.61 523.182 2104.32 523.08 2104.01 522.91C2103.34 522.536 2103.01 522.081 2102.94 521.953C2102.9 521.891 2103.09 522.202 2103.29 523.169C2103.48 524.122 2103.62 525.491 2103.62 527.368H2123.62C2123.62 522.001 2122.88 516.313 2120.08 511.663C2116.81 506.199 2111.38 503.288 2105.17 503.288V523.288ZM2103.62 527.368C2103.62 528.781 2102.84 531.874 2098.77 536.961C2094.81 541.909 2088.51 547.785 2079.46 554.568L2091.46 570.568C2101.19 563.271 2108.96 556.24 2114.39 549.455C2119.71 542.809 2123.62 535.342 2123.62 527.368H2103.62ZM2079.52 554.522C2041.09 582.887 1992.76 607.344 1934.33 627.751L1940.92 646.633C2000.75 625.739 2050.98 600.446 2091.4 570.614L2079.52 554.522ZM1927.95 639.732C1952.12 731.764 1964.23 829.466 1964.23 932.872H1984.23C1984.23 827.894 1971.93 728.476 1947.29 634.652L1927.95 639.732ZM1964.23 932.872C1964.23 1019.41 1954.46 1102.14 1934.95 1181.1L1954.37 1185.89C1974.29 1105.28 1984.23 1020.93 1984.23 932.872H1964.23ZM1934.96 1181.07C1923.99 1224.97 1906.76 1260.05 1883.6 1286.77L1898.71 1299.87C1924.37 1270.27 1942.81 1232.13 1954.36 1185.92L1934.96 1181.07ZM1883.48 1286.92C1861.79 1312.94 1835.44 1325.56 1803.86 1325.56V1345.56C1841.74 1345.56 1873.59 1330.02 1898.84 1299.72L1883.48 1286.92ZM1803.86 1325.56C1790.31 1325.56 1779.61 1322.61 1771.21 1317.27C1762.86 1311.95 1756.08 1303.81 1751.1 1292.2L1732.72 1300.08C1739.01 1314.75 1748.18 1326.32 1760.48 1334.14C1772.74 1341.94 1787.37 1345.56 1803.86 1345.56V1325.56ZM1751.01 1292C1737.33 1261.9 1729.73 1233.51 1727.95 1206.77L1708 1208.1C1709.97 1237.68 1718.33 1268.42 1732.81 1300.27L1751.01 1292ZM1727.95 1206.8C1725.16 1163.02 1723.75 1091.49 1723.75 992.008H1703.75C1703.75 1091.52 1705.16 1163.61 1707.99 1208.07L1727.95 1206.8ZM1723.75 992.008C1723.75 892.977 1731.23 773.202 1746.22 632.621L1726.33 630.499C1711.29 771.518 1703.75 892.042 1703.75 992.008H1723.75ZM1742.13 623.453C1710.35 600.502 1695.59 573.711 1695.59 542.856H1675.59C1675.59 581.462 1694.62 613.807 1730.42 639.667L1742.13 623.453ZM1695.59 542.856C1695.59 508.401 1702.87 483.76 1715.93 467.439L1700.31 454.945C1683.33 476.17 1675.59 505.973 1675.59 542.856H1695.59ZM1716.07 467.252C1729.81 449.216 1746.69 437.92 1766.86 432.877L1762.01 413.475C1737.13 419.696 1716.46 433.744 1700.16 455.132L1716.07 467.252ZM1774.31 424.765C1787.44 343.197 1800.08 272.948 1812.25 213.997L1792.66 209.955C1780.42 269.276 1767.72 339.827 1754.57 421.587L1774.31 424.765ZM1812.22 214.145C1825.16 155.9 1844.44 109.394 1869.71 74.192L1853.47 62.5279C1826.17 100.541 1806.03 149.78 1792.69 209.807L1812.22 214.145ZM1869.78 74.0946C1895.56 37.268 1919.24 22.04 1940.44 22.04V2.03999C1909.07 2.03999 1880.18 24.3586 1853.4 62.6253L1869.78 74.0946ZM1940.44 22.04C1945.97 22.04 1950.42 23.5296 1954.2 26.328C1958.1 29.2121 1961.85 33.9088 1965.11 41.141C1971.74 55.8461 1975.49 79.1246 1975.49 112.008H1995.49C1995.49 78.246 1991.74 51.5405 1983.35 32.923C1979.1 23.4938 1973.46 15.6945 1966.1 10.248C1958.62 4.71572 1949.92 2.03999 1940.44 2.03999V22.04ZM1975.49 112.008C1975.49 214.709 1937.41 331.198 1860.03 461.724L1877.23 471.924C1955.67 339.624 1995.49 219.568 1995.49 112.008H1975.49ZM1860.44 472.559C1879.34 499.556 1897.27 538.857 1914.02 590.972L1933.06 584.852C1916.02 531.837 1897.35 490.412 1876.82 461.089L1860.44 472.559ZM1815.01 657.582C1806.54 773.339 1802.31 905.942 1802.31 1055.37H1822.31C1822.31 906.298 1826.53 774.197 1834.96 659.042L1815.01 657.582ZM1802.31 1055.37C1802.31 1130.54 1804.3 1187.29 1808.35 1225.38C1810.36 1244.34 1812.94 1259.23 1816.25 1269.6C1817.88 1274.73 1819.91 1279.46 1822.61 1283.1C1825.32 1286.74 1829.81 1290.65 1836.25 1290.65V1270.65C1838.69 1270.65 1839.44 1272.21 1838.66 1271.16C1837.87 1270.1 1836.66 1267.79 1835.3 1263.53C1832.62 1255.13 1830.21 1241.86 1828.24 1223.27C1824.31 1186.27 1822.31 1130.38 1822.31 1055.37H1802.31ZM1836.25 1290.65C1855.37 1290.65 1870.93 1277.92 1883.42 1258.19C1895.98 1238.33 1906.86 1209.33 1916.34 1171.87L1896.95 1166.96C1887.66 1203.66 1877.41 1230.27 1866.52 1247.49C1855.54 1264.84 1845.28 1270.65 1836.25 1270.65V1290.65ZM1916.33 1171.9C1935.35 1097.72 1944.81 1014.26 1944.81 921.608H1924.81C1924.81 1012.93 1915.49 1094.68 1896.96 1166.93L1916.33 1171.9ZM1944.81 921.608C1944.81 829.795 1934.39 737.54 1913.59 644.858L1894.07 649.238C1914.57 740.534 1924.81 831.32 1924.81 921.608H1944.81ZM1901.25 637.386C1873.78 644.713 1848.37 648.312 1824.98 648.312V668.312C1850.41 668.312 1877.56 664.402 1906.41 656.71L1901.25 637.386ZM1854.66 452.283C1882.28 406.576 1907.41 352.946 1930.11 291.472L1911.35 284.544C1888.99 345.096 1864.37 397.536 1837.54 441.941L1854.66 452.283ZM1930.12 291.425C1952.84 228.951 1964.52 176.079 1964.52 133.128H1944.52C1944.52 172.779 1933.67 223.161 1911.33 284.591L1930.12 291.425ZM1964.52 133.128C1964.52 112.315 1963.47 96.0056 1961.15 84.66C1960 79.0711 1958.4 73.8663 1955.91 69.8178C1953.37 65.6809 1948.82 61.176 1941.85 61.176V81.176C1939.1 81.176 1938.24 79.2524 1938.87 80.2782C1939.55 81.3923 1940.58 83.9316 1941.55 88.6679C1943.46 97.973 1944.52 112.64 1944.52 133.128H1964.52ZM1941.85 61.176C1934.07 61.176 1927.75 65.6105 1922.95 70.8382C1918.07 76.1606 1913.54 83.5811 1909.24 92.5487C1900.61 110.557 1891.85 136.993 1882.89 171.441L1902.24 176.479C1911.11 142.405 1919.49 117.449 1927.28 101.195C1931.19 93.0322 1934.71 87.6047 1937.69 84.3618C1940.75 81.0241 1942.12 81.176 1941.85 81.176V61.176ZM1882.86 171.566C1865.83 240.633 1850.28 332.12 1836.18 445.882L1856.03 448.342C1870.08 334.947 1885.51 244.333 1902.28 176.354L1882.86 171.566ZM1837.53 498.287L1829.08 512.367L1846.23 522.657L1854.68 508.577L1837.53 498.287ZM1827.7 516.536L1820.66 588.344L1840.57 590.296L1847.61 518.488L1827.7 516.536ZM1827.67 598.878C1840.51 602.828 1852.33 604.952 1863 604.952V584.952C1854.89 584.952 1845.12 583.322 1833.55 579.762L1827.67 598.878ZM1863 604.952C1873.57 604.952 1882.53 604.475 1889.76 603.443L1886.93 583.644C1881.01 584.49 1873.08 584.952 1863 584.952V604.952ZM1897.83 590.382C1885.43 553.192 1870.99 522.253 1854.37 497.809L1837.83 509.055C1853.13 531.544 1866.85 560.68 1878.86 596.706L1897.83 590.382ZM1755.64 448.889C1746.8 451.836 1739.53 456.96 1734.59 464.529C1729.73 471.986 1727.69 480.966 1727.69 490.76H1747.69C1747.69 483.658 1749.17 478.793 1751.34 475.455C1753.45 472.229 1756.73 469.609 1761.97 467.863L1755.64 448.889ZM1727.69 490.76C1727.69 509.171 1731.79 525.607 1740.43 539.649L1757.47 529.167C1751.09 518.804 1747.69 506.141 1747.69 490.76H1727.69ZM1758.89 535.512C1762.64 501.762 1765.9 476.638 1768.67 460.02L1748.94 456.732C1746.08 473.906 1742.77 499.47 1739.01 533.304L1758.89 535.512ZM2348.14 655.496L2339.11 651.202L2339.1 651.221L2339.09 651.241L2348.14 655.496ZM2069.36 873.736L2061.14 879.428L2061.28 879.634L2061.43 879.833L2069.36 873.736ZM2076.4 455.56L2086.35 456.569L2087.26 447.535L2078.36 445.754L2076.4 455.56ZM2001.77 397.832H1991.77V398.315L1991.82 398.795L2001.77 397.832ZM2083.44 386.568L2078.97 395.512L2091.61 401.833L2093.36 387.808L2083.44 386.568ZM2113.01 181L2122.88 182.601L2122.88 182.58L2122.88 182.56L2113.01 181ZM2139.76 130.312L2147.04 137.166L2147.04 137.166L2139.76 130.312ZM2182 410.504L2172.04 409.61L2170.86 422.737L2183.82 420.337L2182 410.504ZM2265.07 382.344L2260.93 373.24L2260.88 373.265L2260.83 373.289L2265.07 382.344ZM2345.33 376.712H2335.33V377.211L2335.38 377.707L2345.33 376.712ZM2293.23 416.136L2297.31 425.264L2297.41 425.22L2297.51 425.173L2293.23 416.136ZM2177.77 452.744L2175.77 442.947L2168.42 444.45L2167.81 451.925L2177.77 452.744ZM2177.77 820.232V830.232H2178.05L2178.33 830.217L2177.77 820.232ZM2245.36 761.096L2237.29 755.191L2237.29 755.191L2245.36 761.096ZM2328.43 611.848L2319.33 607.71L2319.31 607.742L2319.3 607.774L2328.43 611.848ZM2339.09 651.241C2302.14 729.814 2268.27 788.139 2237.54 826.668C2206.35 865.776 2180.33 882.04 2159.47 882.04V902.04C2190.23 902.04 2221.48 878.88 2253.18 839.14C2285.33 798.821 2319.98 738.874 2357.19 659.751L2339.09 651.241ZM2159.47 882.04C2134.42 882.04 2114.99 880.524 2100.92 877.664C2086.26 874.688 2079.62 870.675 2077.28 867.639L2061.43 879.833C2068.48 888.999 2081.55 894.139 2096.94 897.264C2112.89 900.506 2133.83 902.04 2159.47 902.04V882.04ZM2077.58 868.044C2076.53 866.524 2075.03 863.152 2073.54 856.96C2072.09 850.974 2070.83 843.117 2069.8 833.271C2067.74 813.59 2066.69 786.763 2066.69 752.648H2046.69C2046.69 787.056 2047.74 814.671 2049.91 835.353C2050.99 845.688 2052.37 854.493 2054.09 861.648C2055.77 868.598 2057.96 874.846 2061.14 879.428L2077.58 868.044ZM2066.69 752.648C2066.69 684.639 2073.22 586.011 2086.35 456.569L2066.45 454.551C2053.3 584.181 2046.69 683.611 2046.69 752.648H2066.69ZM2078.36 445.754C2055.69 441.22 2039.41 434.491 2028.66 426.178C2018.22 418.102 2012.85 408.449 2011.73 396.869L1991.82 398.795C1993.52 416.314 2001.99 430.831 2016.42 441.998C2030.55 452.928 2050.18 460.514 2074.44 465.366L2078.36 445.754ZM2011.77 397.832C2011.77 392.704 2013.32 390.346 2015.23 388.89C2017.65 387.043 2022.47 385.304 2031.34 385.304V365.304C2020.5 365.304 2010.54 367.32 2003.11 372.982C1995.16 379.035 1991.77 387.941 1991.77 397.832H2011.77ZM2031.34 385.304C2049.77 385.304 2065.56 388.808 2078.97 395.512L2087.91 377.624C2071.28 369.309 2052.34 365.304 2031.34 365.304V385.304ZM2093.36 387.808C2101.79 320.349 2111.63 251.946 2122.88 182.601L2103.13 179.399C2091.85 248.976 2081.98 317.619 2073.52 385.328L2093.36 387.808ZM2122.88 182.56C2125.32 167.101 2133.1 151.976 2147.04 137.166L2132.48 123.458C2116.38 140.562 2106.32 159.23 2103.13 179.44L2122.88 182.56ZM2147.04 137.166C2161.2 122.118 2173.3 116.376 2183.41 116.376V96.376C2165.36 96.376 2148.35 106.591 2132.48 123.458L2147.04 137.166ZM2183.41 116.376C2183.46 116.376 2183.58 116.261 2184.17 116.876C2185.01 117.759 2186.32 119.782 2187.6 123.83C2190.18 131.951 2191.71 145.135 2191.71 164.104H2211.71C2211.71 144.588 2210.19 128.908 2206.67 117.786C2203.29 107.148 2196.44 96.376 2183.41 96.376V116.376ZM2191.71 164.104C2191.71 181.355 2185.21 262.827 2172.04 409.61L2191.96 411.398C2205.07 265.317 2211.71 182.522 2211.71 164.104H2191.71ZM2183.82 420.337C2210.2 415.451 2238.71 405.743 2269.31 391.399L2260.83 373.289C2231.35 387.105 2204.48 396.17 2180.18 400.671L2183.82 420.337ZM2269.21 391.448C2284.63 384.44 2296.74 379.253 2305.62 375.837C2310.07 374.126 2313.57 372.911 2316.2 372.138C2319.11 371.282 2320.12 371.224 2319.98 371.224V351.224C2317.03 351.224 2313.63 352.046 2310.56 352.95C2307.21 353.937 2303.14 355.361 2298.44 357.171C2289.02 360.795 2276.49 366.168 2260.93 373.24L2269.21 391.448ZM2319.98 371.224C2327.74 371.224 2331.87 372.467 2333.78 373.629C2334.58 374.12 2334.85 374.509 2334.96 374.725C2335.09 374.959 2335.33 375.517 2335.33 376.712H2355.33C2355.33 368.248 2351.55 361.054 2344.2 356.563C2337.66 352.562 2329.12 351.224 2319.98 351.224V371.224ZM2335.38 377.707C2335.27 376.663 2335.8 376.807 2334.52 378.564C2333.27 380.276 2330.92 382.647 2326.97 385.634C2319.11 391.585 2306.58 398.749 2288.95 407.099L2297.51 425.173C2315.55 416.627 2329.54 408.772 2339.04 401.582C2343.78 397.998 2347.82 394.268 2350.68 390.348C2353.5 386.473 2355.85 381.454 2355.28 375.717L2335.38 377.707ZM2289.15 407.008C2254.19 422.644 2216.41 434.634 2175.77 442.947L2179.78 462.541C2221.74 453.958 2260.93 441.542 2297.31 425.264L2289.15 407.008ZM2167.81 451.925C2156.54 589.038 2150.88 693.09 2150.88 763.912H2170.88C2170.88 693.934 2176.48 590.541 2187.74 453.563L2167.81 451.925ZM2150.88 763.912C2150.88 782.941 2152.28 798.206 2155.52 809.025C2157.15 814.431 2159.45 819.518 2162.95 823.402C2166.7 827.572 2171.76 830.232 2177.77 830.232V810.232C2177.77 810.232 2177.82 810.232 2177.9 810.25C2177.98 810.268 2178.06 810.296 2178.11 810.323C2178.24 810.384 2178.13 810.369 2177.81 810.022C2177.09 809.213 2175.87 807.26 2174.68 803.279C2172.29 795.325 2170.88 782.43 2170.88 763.912H2150.88ZM2178.33 830.217C2190.16 829.559 2202.13 822.589 2213.93 812.27C2225.97 801.732 2239.14 786.532 2253.43 767.001L2237.29 755.191C2223.42 774.145 2211.24 788.044 2200.76 797.218C2190.02 806.611 2182.28 809.966 2177.22 810.247L2178.33 830.217ZM2253.43 767.001C2282.14 727.769 2310.16 677.346 2337.56 615.922L2319.3 607.774C2292.26 668.377 2264.9 717.453 2237.29 755.191L2253.43 767.001ZM2337.53 615.986C2351.59 585.068 2362.73 562.102 2371 546.94C2375.16 539.317 2378.44 533.956 2380.87 530.61C2382.11 528.906 2382.89 528.061 2383.24 527.744C2384.07 526.979 2382.48 528.92 2379.12 528.92V508.92C2374.35 508.92 2371 511.829 2369.72 513C2367.96 514.619 2366.27 516.678 2364.69 518.846C2361.5 523.244 2357.73 529.499 2353.44 537.363C2344.82 553.178 2333.43 576.676 2319.33 607.71L2337.53 615.986ZM2379.12 528.92C2379.83 528.92 2380.02 529.025 2379.87 528.969C2379.79 528.938 2379.65 528.872 2379.47 528.751C2379.29 528.629 2379.12 528.481 2378.98 528.321C2378.69 527.988 2378.68 527.802 2378.76 528.056C2378.84 528.341 2378.97 529.003 2378.97 530.184H2398.97C2398.97 525.192 2397.91 519.579 2394.04 515.151C2389.94 510.467 2384.32 508.92 2379.12 508.92V528.92ZM2378.97 530.184C2378.97 553.973 2366.35 593.901 2339.11 651.202L2357.17 659.79C2384.37 602.574 2398.97 558.96 2398.97 530.184H2378.97ZM2316 762.504L2306.01 761.969L2306 762.236V762.504H2316ZM2324.45 604.808L2334.43 605.343L2334.45 605.076V604.808H2324.45ZM2338.53 440.072L2345.6 447.143L2345.6 447.143L2338.53 440.072ZM2387.81 399.24L2393.86 407.202L2393.88 407.184L2393.91 407.166L2387.81 399.24ZM2461.02 376.712L2469.02 370.712L2469.02 370.712L2461.02 376.712ZM2438.5 521.736L2429.32 517.772L2428.83 518.907L2428.63 520.127L2438.5 521.736ZM2514.53 758.28L2506.51 752.31L2506.49 752.326L2506.48 752.341L2514.53 758.28ZM2606.05 580.872L2615.34 584.567L2615.96 583.005L2616.04 581.326L2606.05 580.872ZM2608.86 516.104L2618.86 516.52L2618.86 516.512L2618.86 516.504L2608.86 516.104ZM2611.68 465.416L2621.64 466.321L2621.64 466.284L2621.65 466.246L2611.68 465.416ZM2613.09 441.48L2603.28 439.519L2603.09 440.49V441.48H2613.09ZM2652.51 403.464L2658.83 411.216L2658.91 411.147L2659 411.076L2652.51 403.464ZM2722.91 479.496L2713.12 477.47L2713.09 477.633L2713.06 477.797L2722.91 479.496ZM2706.02 538.632L2697.21 533.891L2696.3 535.592L2696.08 537.512L2706.02 538.632ZM2690.53 713.224L2680.54 712.659L2678.76 744.247L2698.37 719.425L2690.53 713.224ZM2836.96 528.776L2829.89 521.705L2829.62 521.976L2829.37 522.268L2836.96 528.776ZM2862.3 551.304L2870.57 556.932L2870.79 556.607L2870.99 556.265L2862.3 551.304ZM2684.9 783.624L2677.07 777.393L2675.07 779.909L2674.91 783.12L2684.9 783.624ZM2673.63 1011.72L2663.64 1011.26L2663.64 1011.29L2663.64 1011.33L2673.63 1011.72ZM2622.94 1262.34L2614.4 1257.15L2614.34 1257.25L2614.28 1257.35L2622.94 1262.34ZM2380.77 1305.99L2386.5 1297.8L2386.47 1297.78L2386.45 1297.76L2380.77 1305.99ZM2393.44 1061L2385.39 1055.07L2385.35 1055.12L2385.31 1055.17L2393.44 1061ZM2591.97 831.496L2599.3 838.295L2601.75 835.649L2601.95 832.046L2591.97 831.496ZM2600.42 678.024L2610.4 678.574L2591.31 673.895L2600.42 678.024ZM2506.08 838.536L2513.63 845.093L2513.67 845.044L2513.71 844.995L2506.08 838.536ZM2331.49 863.88L2340.25 859.061L2340.25 859.061L2331.49 863.88ZM2587.74 897.672L2597.73 898.182L2599.13 870.671L2580.41 890.874L2587.74 897.672ZM2444.13 1253.9L2435.35 1258.68L2435.35 1258.68L2444.13 1253.9ZM2553.95 1235.59L2563.33 1239.07L2563.33 1239.07L2553.95 1235.59ZM2580.7 1035.66L2590.69 1036.22L2590.69 1036.19L2590.69 1036.17L2580.7 1035.66ZM2325.99 763.039L2334.43 605.343L2314.46 604.273L2306.01 761.969L2325.99 763.039ZM2334.45 604.808C2334.45 554.684 2335.62 516.179 2337.93 489.148C2339.09 475.606 2340.51 465.212 2342.14 457.787C2342.95 454.072 2343.77 451.326 2344.53 449.404C2345.35 447.328 2345.84 446.907 2345.6 447.143L2331.46 433.001C2328.87 435.584 2327.16 438.932 2325.93 442.048C2324.64 445.318 2323.55 449.187 2322.6 453.509C2320.71 462.158 2319.19 473.53 2318 487.444C2315.62 515.325 2314.45 554.495 2314.45 604.808H2334.45ZM2345.6 447.143C2354.47 438.273 2370.43 425.01 2393.86 407.202L2381.76 391.278C2358.26 409.139 2341.36 423.098 2331.46 433.001L2345.6 447.143ZM2393.91 407.166C2405.89 397.946 2415.86 391.257 2423.89 386.917C2432.22 382.416 2437.32 381.08 2439.9 381.08V361.08C2432.16 361.08 2423.42 364.437 2414.38 369.323C2405.04 374.37 2394.13 381.76 2381.71 391.314L2393.91 407.166ZM2439.9 381.08C2445.08 381.08 2448.7 381.523 2451.06 382.15C2453.54 382.812 2453.53 383.382 2453.02 382.712L2469.02 370.712C2465.71 366.288 2460.77 364.041 2456.21 362.826C2451.52 361.576 2445.99 361.08 2439.9 361.08V381.08ZM2453.02 382.712C2453.02 382.711 2453.23 382.989 2453.51 383.743C2453.79 384.488 2454.09 385.55 2454.36 387.003C2454.91 389.938 2455.25 393.965 2455.25 399.24H2475.25C2475.25 393.251 2474.88 387.891 2474.02 383.317C2473.19 378.893 2471.75 374.353 2469.02 370.712L2453.02 382.712ZM2455.25 399.24C2455.25 438.091 2446.67 477.578 2429.32 517.772L2447.68 525.7C2465.99 483.291 2475.25 441.114 2475.25 399.24H2455.25ZM2428.63 520.127C2414.5 606.749 2407.38 678.208 2407.38 734.344H2427.38C2427.38 679.718 2434.33 609.438 2448.37 523.345L2428.63 520.127ZM2407.38 734.344C2407.38 762.227 2409.01 783.943 2412.57 798.957C2414.34 806.402 2416.77 813.036 2420.32 818.023C2424.05 823.265 2429.64 827.416 2437.09 827.416V807.416C2437.96 807.416 2437.81 808.106 2436.61 806.425C2435.23 804.49 2433.55 800.739 2432.03 794.339C2429.03 781.662 2427.38 761.842 2427.38 734.344H2407.38ZM2437.09 827.416C2451.33 827.416 2465.51 821.198 2479.41 810.58C2493.35 799.939 2507.72 784.346 2522.57 764.219L2506.48 752.341C2492.24 771.638 2479.15 785.613 2467.27 794.684C2455.37 803.778 2445.38 807.416 2437.09 807.416V827.416ZM2522.55 764.25C2553.34 722.878 2584.23 662.825 2615.34 584.567L2596.76 577.177C2565.92 654.738 2535.79 712.957 2506.51 752.31L2522.55 764.25ZM2616.04 581.326C2616.98 560.662 2617.92 539.06 2618.86 516.52L2598.87 515.688C2597.93 538.204 2597 559.781 2596.06 580.418L2616.04 581.326ZM2618.86 516.504C2619.79 493.05 2620.73 476.373 2621.64 466.321L2601.72 464.511C2600.76 475.109 2599.81 492.225 2598.87 515.704L2618.86 516.504ZM2621.65 466.246C2622.58 454.982 2623.09 446.632 2623.09 441.48H2603.09C2603.09 445.714 2602.65 453.322 2601.71 464.586L2621.65 466.246ZM2622.89 443.441C2622.6 444.917 2622.09 444.932 2623.85 442.762C2625.24 441.042 2627.44 438.692 2630.59 435.654C2636.86 429.606 2646.23 421.48 2658.83 411.216L2646.2 395.712C2633.45 406.099 2623.58 414.634 2616.71 421.258C2613.29 424.556 2610.44 427.544 2608.31 430.166C2606.55 432.337 2604.05 435.696 2603.28 439.519L2622.89 443.441ZM2659 411.076C2671.4 400.513 2682 392.861 2690.84 387.897C2699.87 382.836 2706.18 381.08 2710.24 381.08V361.08C2701.16 361.08 2691.28 364.721 2681.06 370.455C2670.67 376.286 2658.97 384.826 2646.03 395.852L2659 411.076ZM2710.24 381.08C2711.45 381.08 2712.23 381.39 2713.03 382.064C2714.01 382.894 2715.4 384.643 2716.78 388.128C2719.6 395.263 2721.36 407.114 2721.36 424.584H2741.36C2741.36 406.384 2739.6 391.484 2735.38 380.784C2733.24 375.352 2730.23 370.413 2725.93 366.784C2721.45 363 2716.07 361.08 2710.24 361.08V381.08ZM2721.36 424.584C2721.36 432.779 2718.78 450.086 2713.12 477.47L2732.7 481.522C2738.3 454.463 2741.36 435.162 2741.36 424.584H2721.36ZM2713.06 477.797C2708.4 504.793 2702.98 523.175 2697.21 533.891L2714.82 543.373C2722.19 529.684 2728.03 508.642 2732.77 481.195L2713.06 477.797ZM2696.08 537.512C2688.56 604.284 2683.37 662.674 2680.54 712.659L2700.51 713.789C2703.31 664.276 2708.46 606.271 2715.95 539.752L2696.08 537.512ZM2698.37 719.425C2790.49 602.866 2839.09 541.654 2844.55 535.284L2829.37 522.268C2823.56 529.039 2774.54 590.792 2682.68 707.023L2698.37 719.425ZM2844.03 535.847C2850.33 529.549 2853.44 528.92 2853.86 528.92V508.92C2844.88 508.92 2836.73 514.862 2829.89 521.705L2844.03 535.847ZM2853.86 528.92C2857.01 528.92 2857.54 529.701 2857.34 529.511C2857.15 529.321 2857.94 529.848 2857.94 533H2877.94C2877.94 526.765 2876.37 520.252 2871.49 515.369C2866.6 510.485 2860.09 508.92 2853.86 508.92V528.92ZM2857.94 533C2857.94 536.394 2856.8 540.783 2853.62 546.343L2870.99 556.265C2875.32 548.684 2877.94 540.87 2877.94 533H2857.94ZM2854.04 545.676C2824.24 589.442 2765.33 666.609 2677.07 777.393L2692.72 789.855C2780.94 679.114 2840.29 601.4 2870.57 556.932L2854.04 545.676ZM2674.91 783.12C2669.28 894.82 2665.52 970.87 2663.64 1011.26L2683.62 1012.18C2685.5 971.844 2689.25 895.831 2694.88 784.128L2674.91 783.12ZM2663.64 1011.33C2658.95 1130.35 2642.07 1211.63 2614.4 1257.15L2631.49 1267.54C2662.02 1217.32 2678.92 1131.51 2683.62 1012.11L2663.64 1011.33ZM2614.28 1257.35C2588.45 1302.13 2541.75 1325.56 2470.88 1325.56V1345.56C2546.44 1345.56 2601.12 1320.18 2631.61 1267.34L2614.28 1257.35ZM2470.88 1325.56C2441.18 1325.56 2413.12 1316.43 2386.5 1297.8L2375.03 1314.18C2404.74 1334.98 2436.75 1345.56 2470.88 1345.56V1325.56ZM2386.45 1297.76C2363.01 1281.6 2349.94 1252.18 2349.94 1206.02H2329.94C2329.94 1255.61 2344.09 1292.84 2375.09 1314.22L2386.45 1297.76ZM2349.94 1206.02C2349.94 1161.74 2366.75 1115.39 2401.57 1066.83L2385.31 1055.17C2348.79 1106.11 2329.94 1156.45 2329.94 1206.02H2349.94ZM2401.49 1066.93C2437.74 1017.67 2503.57 941.531 2599.3 838.295L2584.64 824.697C2488.87 927.968 2422.36 1004.83 2385.39 1055.07L2401.49 1066.93ZM2601.95 832.046L2610.4 678.574L2590.43 677.474L2581.98 830.946L2601.95 832.046ZM2591.31 673.895C2559.57 743.9 2528.58 796.469 2498.45 832.077L2513.71 844.995C2545.54 807.387 2577.43 752.948 2609.52 682.153L2591.31 673.895ZM2498.53 831.979C2468.92 866.07 2437.23 882.04 2403.3 882.04V902.04C2444.46 902.04 2481.28 882.34 2513.63 845.093L2498.53 831.979ZM2403.3 882.04C2366.59 882.04 2347.79 872.767 2340.25 859.061L2322.73 868.699C2335.84 892.54 2364.91 902.04 2403.3 902.04V882.04ZM2340.25 859.061C2331.27 842.732 2326 811.268 2326 762.504H2306C2306 811.361 2311.06 847.481 2322.73 868.699L2340.25 859.061ZM2580.41 890.874C2526.61 948.917 2485.96 1001.5 2458.7 1048.6C2431.51 1095.6 2417.23 1137.86 2417.23 1175.05H2437.23C2437.23 1142.78 2449.71 1104.07 2476.02 1058.62C2502.26 1013.26 2541.87 961.883 2595.08 904.47L2580.41 890.874ZM2417.23 1175.05C2417.23 1208.06 2423.05 1236.13 2435.35 1258.68L2452.91 1249.11C2442.68 1230.36 2437.23 1205.86 2437.23 1175.05H2417.23ZM2435.35 1258.68C2447.96 1281.81 2466.45 1294.87 2490.59 1294.87V1274.87C2475.31 1274.87 2462.82 1267.29 2452.91 1249.11L2435.35 1258.68ZM2490.59 1294.87C2507.55 1294.87 2522.57 1290.19 2535.1 1280.45C2547.52 1270.79 2556.77 1256.71 2563.33 1239.07L2544.58 1232.11C2538.93 1247.32 2531.52 1257.89 2522.82 1264.66C2514.23 1271.34 2503.67 1274.87 2490.59 1274.87V1294.87ZM2563.33 1239.07C2576.14 1204.58 2585.07 1136.44 2590.69 1036.22L2570.72 1035.1C2565.08 1135.75 2556.17 1200.89 2544.58 1232.11L2563.33 1239.07ZM2590.69 1036.17L2597.73 898.182L2577.76 897.162L2570.72 1035.15L2590.69 1036.17Z" fill="black"/>
</svg>
